<?xml version="1.0" standalone="no"?>
<!DOCTYPE svg PUBLIC "-//W3C//DTD SVG 20010904//EN"
 "http://www.w3.org/TR/2001/REC-SVG-20010904/DTD/svg10.dtd">
<svg version="1.0" xmlns="http://www.w3.org/2000/svg"
 width="512.000000pt" height="512.000000pt" viewBox="0 0 512.000000 512.000000"
 preserveAspectRatio="xMidYMid meet">
<metadata>
Created by potrace 1.11, written by Peter Selinger 2001-2013
</metadata>
<g transform="translate(0.000000,512.000000) scale(0.100000,-0.100000)"
fill="#000000" stroke="none">
<path d="M0 2560 l0 -2560 645 0 644 0 -4 78 c-3 42 -6 93 -6 112 -3 64 -21
175 -31 187 -6 7 -12 25 -13 40 -6 65 -18 129 -26 139 -5 6 -18 47 -29 90 -11
43 -23 86 -27 94 -3 8 -8 24 -10 35 -5 33 -25 75 -34 75 -5 0 -6 7 -3 15 3 8
-6 39 -20 69 -14 30 -26 64 -26 75 0 19 -7 38 -45 126 -7 17 -16 48 -19 69 -3
22 -9 42 -13 45 -17 12 -35 80 -50 183 -3 21 -9 38 -14 38 -5 0 -9 12 -8 27 0
16 -4 53 -9 83 -5 30 -8 91 -5 135 2 44 3 89 3 100 -2 43 6 98 18 121 5 11 7
24 5 31 -2 7 5 22 16 34 11 12 18 26 15 30 -3 5 1 19 8 31 7 13 11 27 10 31
-1 5 6 23 18 41 11 18 17 36 14 39 -4 3 3 19 15 35 12 17 21 33 21 37 0 3 12
22 26 41 15 19 24 34 20 34 -3 0 5 12 18 28 14 15 25 32 26 37 3 16 22 35 31
30 4 -3 21 14 37 38 17 23 42 49 56 56 14 8 26 20 26 26 0 6 10 17 23 24 12 7
33 28 47 46 14 19 30 35 35 35 6 0 30 18 54 40 24 22 75 59 114 82 40 23 82
51 94 62 35 34 44 39 136 85 48 24 87 47 87 51 0 4 8 10 18 14 16 5 28 12 84
49 14 9 33 17 41 17 8 0 29 13 48 29 18 16 46 32 61 35 16 3 38 15 51 27 30
28 75 51 87 44 6 -4 31 7 55 24 25 17 57 34 71 37 27 7 185 93 194 105 12 16
122 70 135 66 7 -3 21 3 31 14 9 10 19 17 22 14 7 -7 64 25 95 53 15 14 27 22
27 18 0 -4 15 5 34 19 19 14 57 35 86 45 28 10 95 47 148 81 53 35 103 63 112
64 8 0 22 5 30 10 8 5 21 10 28 11 11 2 48 31 107 83 30 27 85 53 100 47 7 -2
15 4 18 14 3 13 11 17 25 13 13 -3 25 3 36 18 9 13 16 20 16 15 0 -4 23 14 51
42 27 27 62 55 77 63 29 15 72 50 105 86 16 18 23 20 34 11 11 -9 17 -8 24 3
5 8 7 19 5 26 -6 16 30 47 39 34 8 -14 65 27 123 88 24 26 47 46 50 46 10 0
162 153 162 163 0 5 34 43 75 85 41 42 75 79 75 82 0 7 66 92 84 110 6 6 12
17 14 25 2 8 24 51 49 95 70 123 73 130 80 184 l6 51 -2342 0 -2341 0 0 -2560z"/>
</g>
</svg>
