<?xml version="1.0" encoding="utf-8"?>
<!-- Generator: Adobe Illustrator 24.1.1, SVG Export Plug-In . SVG Version: 6.00 Build 0)  -->
<svg version="1.1" id="Layer_1" xmlns="http://www.w3.org/2000/svg" xmlns:xlink="http://www.w3.org/1999/xlink" x="0px" y="0px"
	 viewBox="0 0 512 512" style="enable-background:new 0 0 512 512;" xml:space="preserve">
<style type="text/css">
	.st0{fill:#FFFFFF;}
</style>
<path class="st0" d="M256,52C138.4,52,43.1,145.6,43.1,261.2c0,92.5,61,170.8,145.5,198.5c10.6,2,14.6-4.5,14.6-10.1
	c0-5-0.2-18.1-0.2-35.6c-59.2,12.6-71.7-28-71.7-28c-9.6-24.1-23.7-30.6-23.7-30.6c-19.3-13,1.5-12.7,1.5-12.7
	c21.4,1.4,32.6,21.5,32.6,21.5c19,32,49.8,22.7,62,17.4c1.9-13.6,7.4-22.7,13.5-27.9c-47.3-5.2-97-23.2-97-103.4
	c0-22.9,8.2-41.5,21.9-56.1c-2.4-5.3-9.6-26.5,1.8-55.4c0,0,17.8-5.6,58.5,21.5c17-4.7,35.1-7,53.2-7.1c18.1,0.1,36.2,2.4,53.2,7.1
	c40.4-27,58.3-21.5,58.3-21.5c11.5,28.8,4.2,50.1,2.2,55.4c13.6,14.6,21.8,33.3,21.8,56.1c0,80.3-49.7,98.1-97.1,103.2
	c7.5,6.3,14.4,19.1,14.4,38.7c0,28-0.2,50.5-0.2,57.3c0,5.5,3.7,12.1,14.6,9.9c85.2-27.4,146.1-105.9,146.1-198.2
	C468.9,145.6,373.6,52,256,52z"/>
</svg>
