<?xml version="1.0" encoding="utf-8"?>
<!-- Generator: Adobe Illustrator 24.1.1, SVG Export Plug-In . SVG Version: 6.00 Build 0)  -->
<svg version="1.1" id="Capa_1" xmlns="http://www.w3.org/2000/svg" xmlns:xlink="http://www.w3.org/1999/xlink" x="0px" y="0px"
	 viewBox="0 0 512 512" style="enable-background:new 0 0 512 512;" xml:space="preserve">
<style type="text/css">
	.st0{fill:#FFFFFF;}
</style>
<g>
	<path class="st0" d="M7.9,336.3c-0.2,1.1-1,2-2,2s-1.9-0.8-2-2L0,308.2l3.7-28.4c0.1-1.2,1-2,2-2c1,0,1.9,0.8,2,2l4.5,28.4
		L7.9,336.3z M26.8,353.2c-0.2,1.2-1,2-2.1,2c-1,0-2-0.9-2.1-2l-5.1-45l5.1-46c0.1-1.2,1.1-2,2.1-2c1.1,0,2,0.9,2.1,2l5.7,46
		L26.8,353.2z M47.4,360.9c-0.1,1.5-1.2,2.5-2.6,2.5c-1.3,0-2.5-1-2.6-2.5l-4.7-52.5l4.7-54.6c0.1-1.5,1.2-2.6,2.6-2.6
		c1.3,0,2.4,1,2.6,2.6l5.4,54.6L47.4,360.9z M68.2,362.6c-0.1,1.7-1.5,2.9-3,2.9c-1.6,0-2.9-1.2-3-2.9l-4.5-54.2l4.5-56
		c0.1-1.7,1.5-2.9,3-2.9c1.6,0,2.9,1.2,3,2.9l5.2,56L68.2,362.6z M89,362.9c-0.1,1.9-1.6,3.4-3.4,3.4c-1.8,0-3.4-1.5-3.5-3.4
		l-4.3-54.7l4.3-52c0.1-1.9,1.6-3.4,3.5-3.4c1.8,0,3.4,1.5,3.4,3.4l4.8,52L89,362.9z M110,363L110,363c-0.1,2.1-1.8,3.8-3.9,3.8
		c-2,0-3.8-1.7-3.9-3.8l-3.9-54.7l3.9-84.7c0.1-2.1,1.8-3.8,3.9-3.8c2,0,3.8,1.7,3.9,3.8l4.5,84.7L110,363z M130.9,362.9
		L130.9,362.9c-0.1,2.4-2,4.3-4.4,4.3c-2.2,0-4.2-1.9-4.3-4.3l-3.7-54.3l3.7-104c0.1-2.4,2-4.3,4.3-4.3c2.4,0,4.3,1.9,4.4,4.3
		l4.3,104L130.9,362.9z M152.6,362.1L152.6,362.1c-0.1,2.6-2.1,4.7-4.7,4.7c-2.6,0-4.6-2-4.7-4.7l-3.5-53.8l3.5-112.6
		c0.1-2.6,2.1-4.7,4.7-4.7c2.6,0,4.6,2.1,4.7,4.7l3.9,112.6L152.6,362.1z M174.1,361.8c-0.1,2.9-2.4,5.2-5.2,5.2
		c-2.8,0-5.1-2.2-5.2-5.2l-3.3-53.4l3.3-116.4c0.1-2.9,2.4-5.2,5.2-5.2c2.8,0,5.1,2.2,5.2,5.2l3.6,116.4L174.1,361.8z M195.8,361.3
		L195.8,361.3c-0.1,3-2.6,5.6-5.6,5.6c-3,0-5.5-2.5-5.6-5.6l-3-52.9l2.9-113.4c0.1-3.1,2.6-5.6,5.6-5.6c3.1,0,5.5,2.5,5.6,5.6
		l3.4,113.4L195.8,361.3z M217.7,361L217.7,361c0,3.4-2.7,6-6.1,6s-6-2.6-6.1-6l-2.7-52.7l2.7-109.2c0.1-3.4,2.7-6.1,6.1-6.1
		s6,2.7,6.1,6.1l3,109.4L217.7,361z M240.1,355.4l-0.2,5.2c0,1.8-0.8,3.4-1.9,4.6c-1.2,1.1-2.8,1.9-4.5,1.9c-2,0-3.8-0.9-4.9-2.4
		c-0.9-1-1.5-2.4-1.5-3.8c0-0.1,0-0.1,0-0.2c0,0-2.5-52.2-2.5-52.3l2.5-128.8v-1.2c0-2.2,1.2-4.3,3-5.4c1-0.7,2.1-1,3.5-1
		c1.3,0,2.6,0.4,3.6,1.1c1.8,1.1,2.9,3.1,2.9,5.4l2.7,130.1L240.1,355.4z M261.7,359.9L261.7,359.9c0,3.7-3.1,6.8-7,6.8
		c-3.8,0-6.8-3.1-7-6.8l-1.5-25.4l-1.5-26l2.8-141.1v-0.7c0-2.1,1-4,2.6-5.4c1.2-1,2.7-1.6,4.4-1.6c1.3,0,2.5,0.3,3.6,1
		c2,1.2,3.4,3.4,3.4,6l3,141.9L261.7,359.9z M449,366.8c0,0-174.4,0-174.6,0c-3.8-0.3-6.7-3.4-6.8-7.3V159.7
		c0.1-3.7,1.3-5.6,6.1-7.4c12.2-4.7,26-7.5,40.3-7.5c58,0,105.7,44.6,110.7,101.3c7.5-3.1,15.7-4.9,24.4-4.9c34.8,0,63,28.2,63,63
		C512,339,483.8,366.8,449,366.8L449,366.8z"/>
</g>
</svg>
