<?xml version="1.0" encoding="utf-8"?>
<!-- Generator: Adobe Illustrator 24.1.1, SVG Export Plug-In . SVG Version: 6.00 Build 0)  -->
<svg version="1.1" id="Capa_1" xmlns="http://www.w3.org/2000/svg" xmlns:xlink="http://www.w3.org/1999/xlink" x="0px" y="0px"
	 viewBox="0 0 512 512" style="enable-background:new 0 0 512 512;" xml:space="preserve">
<style type="text/css">
	.st0{fill:#FFFFFF;}
</style>
<g>
	<g>
		<path class="st0" d="M457.9,130.8c-15,6.6-31,11-47.7,13.1c17.2-10.3,30.3-26.3,36.4-45.7c-16,9.5-33.7,16.2-52.5,20
			C378.9,102,357.2,92,333.7,92c-45.8,0-82.7,37.2-82.7,82.8c0,6.5,0.6,12.9,1.9,18.8c-68.8-3.4-129.7-36.4-170.6-86.6
			c-7.2,12.4-11.4,26.6-11.4,41.9c0,28.7,14.7,54.1,36.7,68.8c-13.3-0.2-26.3-4.1-37.4-10.2c0,0.2,0,0.6,0,0.9
			c0,40.2,28.7,73.6,66.3,81.3c-6.7,1.8-14.1,2.8-21.7,2.8c-5.3,0-10.6-0.3-15.7-1.4c10.7,32.8,41.2,56.9,77.4,57.6
			c-28.1,22-63.9,35.3-102.6,35.3c-6.8,0-13.3-0.3-19.8-1.1c36.7,23.7,80.1,37.1,127,37.1c152.3,0,235.6-126.2,235.6-235.5
			c0-3.6-0.2-7.2-0.3-10.7C432.8,162.2,446.6,147.6,457.9,130.8z"/>
	</g>
</g>
</svg>
